<?xml version="1.0"?>
<svg xmlns:rdf="http://www.w3.org/1999/02/22-rdf-syntax-ns#" xmlns="http://www.w3.org/2000/svg" xmlns:cc="http://creativecommons.org/ns#" xmlns:dc="http://purl.org/dc/elements/1.1/" xmlns:svg="http://www.w3.org/2000/svg" id="svg2478" viewBox="0 0 125.82 68.562" version="1.0">
  <g id="layer1" transform="translate(-312.09 -498.08)">
    <g id="g13526" transform="translate(-254.32 469.79)">
      <path id="path10252" d="m679.99 63.08c-1.3 0.013 0.51-0.479-2.79-0.409-1.5 0.032-3.76 0.635-5.65 1.267-1.95 0.648-5.31 1.928-7.55 2.494-4.6 1.161-2.07 0.611-8.93 1.696-7.12 1.124-8.72 1.27-10.31 1.198-1.51-0.069-5.26 0.394-8.79-0.078-3.16-0.423-4.37-0.106-5.1 0.399s-1.16 1.42-1.12 2.387c0.05 0.966 0.55 1.83 1.32 2.252 0.72 0.434 1.82 1.108 3.64 1.72 4.65 1.56 11.48 2.633 19.07 2.633s14.43-1.073 19.07-2.633c1.94-0.652 3.17-1.375 3.93-1.855 0.65-0.404 1.09-1.132 1.19-1.961 0.21-1.833 1.32-3.346 2.87-3.924 1.18-0.36 1.92-1.683 1.7-3.04-0.23-1.357-1.33-2.228-2.55-2.146z" fill="#fff"/>
      <path id="path5040" stroke-linejoin="round" d="m629.77 31.37c-8.95 0-16.61 4.663-20.37 11.361-1.5-0.838-3.17-1.352-4.94-1.352-5.34 0-9.79 4.299-11.16 10.135-2.35-0.927-5.06-1.502-7.97-1.502-8.74 0-15.84 4.789-15.84 10.685 0 5.323 5.81 9.701 13.37 10.51-0.34 0.575-0.61 1.149-0.61 1.752 0 5.645 15.47 10.234 34.54 10.234 19.06 0 34.53-4.589 34.53-10.234 0-0.38-0.25-0.732-0.39-1.101 0.84 0.207 1.68 0.425 2.59 0.425 5.1 0 9.23-3.467 9.23-7.732s-4.13-7.707-9.23-7.707c-0.62 0-1.17 0.201-1.76 0.3 0.51-1.705 0.87-3.454 0.87-5.305 0-11.29-10.24-20.469-22.86-20.469z" stroke="#6798e9" stroke-linecap="round" stroke-miterlimit=".5" stroke-width="6.154" fill="#fff"/>
      <path id="path5042" stroke-linejoin="round" d="m658.91 33.007c-8.21 0-15.24 4.673-18.68 11.385-1.38-0.84-2.91-1.354-4.54-1.354-4.9 0-8.97 4.307-10.24 10.155-2.15-0.929-4.63-1.504-7.3-1.504-8.02 0-14.53 4.799-14.53 10.707 0 5.334 5.33 9.721 12.26 10.532-0.31 0.576-0.55 1.151-0.55 1.755 0 5.657 14.19 10.256 31.67 10.256s31.67-4.599 31.67-10.256c0-0.38-0.23-0.733-0.35-1.103 0.76 0.208 1.54 0.426 2.38 0.426 4.67 0 8.46-3.474 8.46-7.748s-3.79-7.723-8.46-7.723c-0.58 0-1.08 0.201-1.63 0.301 0.48-1.71 0.8-3.462 0.8-5.317 0-11.314-9.38-20.512-20.96-20.512z" stroke="#6798e9" stroke-linecap="round" stroke-miterlimit=".5" stroke-width="6.154" fill="#6798e9"/>
      <path id="path6506" stroke-linejoin="round" d="m625.66 67.907c-4.57 0-8.48 2.327-10.4 5.671-0.77-0.418-1.62-0.674-2.52-0.674-2.73 0-5 2.146-5.71 5.059-1.19-0.463-2.58-0.75-4.06-0.75-4.47 0-8.09 2.391-8.09 5.335 0 2.657 2.96 4.842 6.82 5.246-0.17 0.287-0.31 0.574-0.31 0.875 0 2.818 7.91 5.109 17.64 5.109 9.74 0 17.64-2.291 17.64-5.109 0-0.19-0.12-0.366-0.19-0.55 0.42 0.104 0.85 0.213 1.32 0.213 2.6 0 4.71-1.731 4.71-3.861 0-2.129-2.11-3.847-4.71-3.847-0.32 0-0.6 0.1-0.9 0.15 0.26-0.852 0.44-1.725 0.44-2.649 0-5.636-5.23-10.218-11.68-10.218z" stroke="#386195" stroke-linecap="round" stroke-miterlimit=".5" stroke-width="6.154" fill="#386195"/>
    </g>
  </g>
  <metadata>
    <rdf:RDF>
      <cc:Work>
        <dc:format>image/svg+xml</dc:format>
        <dc:type rdf:resource="http://purl.org/dc/dcmitype/StillImage"/>
        <cc:license rdf:resource="http://creativecommons.org/licenses/publicdomain/"/>
        <dc:publisher>
          <cc:Agent rdf:about="http://openclipart.org/">
            <dc:title>Openclipart</dc:title>
          </cc:Agent>
        </dc:publisher>
        <dc:title>simple weather symbols</dc:title>
        <dc:date>2008-02-08T23:54:06</dc:date>
        <dc:description>clip art, clipart, clouds, clouds, icon, icon, image, media, png, public domain, rain, rain, snow, snow, sun, sun, svg, symbol, symbol, weather, weather, </dc:description>
        <dc:source>http://openclipart.org/detail/14706/simple-weather-symbols-by-anonymous-14706</dc:source>
        <dc:creator>
          <cc:Agent>
            <dc:title>Anonymous</dc:title>
          </cc:Agent>
        </dc:creator>
        <dc:subject>
          <rdf:Bag>
            <rdf:li>clip art</rdf:li>
            <rdf:li>clipart</rdf:li>
            <rdf:li>clouds</rdf:li>
            <rdf:li>icon</rdf:li>
            <rdf:li>image</rdf:li>
            <rdf:li>media</rdf:li>
            <rdf:li>png</rdf:li>
            <rdf:li>public domain</rdf:li>
            <rdf:li>rain</rdf:li>
            <rdf:li>snow</rdf:li>
            <rdf:li>sun</rdf:li>
            <rdf:li>svg</rdf:li>
            <rdf:li>symbol</rdf:li>
            <rdf:li>weather</rdf:li>
          </rdf:Bag>
        </dc:subject>
      </cc:Work>
      <cc:License rdf:about="http://creativecommons.org/licenses/publicdomain/">
        <cc:permits rdf:resource="http://creativecommons.org/ns#Reproduction"/>
        <cc:permits rdf:resource="http://creativecommons.org/ns#Distribution"/>
        <cc:permits rdf:resource="http://creativecommons.org/ns#DerivativeWorks"/>
      </cc:License>
    </rdf:RDF>
  </metadata>
</svg>
