<?xml version="1.0"?>
<svg xmlns:rdf="http://www.w3.org/1999/02/22-rdf-syntax-ns#" xmlns="http://www.w3.org/2000/svg" xmlns:cc="http://creativecommons.org/ns#" xmlns:dc="http://purl.org/dc/elements/1.1/" xmlns:svg="http://www.w3.org/2000/svg" id="svg2569" viewBox="0 0 107.95 93.021" version="1.0">
  <g id="layer1" transform="translate(-937.45 -568.71)">
    <g id="g13552" transform="translate(492.97 424.49)">
      <path id="path10289" stroke-linejoin="round" d="m510.21 208.67c15.43-1.4 26.67-5.66 26.67-10.68 0-0.42-0.28-0.8-0.43-1.21 0.91 0.23 1.83 0.47 2.83 0.47 5.57 0 10.07-3.79 10.07-8.44 0-4.66-4.5-8.41-10.07-8.41-0.68 0-1.28 0.21-1.93 0.32 0.56-1.86 0.95-3.77 0.95-5.79 0-12.32-11.17-22.34-24.95-22.34v0c-9.77 0-18.13 5.09-22.23 12.4-1.64-0.91-3.47-1.47-5.39-1.47-5.84 0-10.69 4.69-12.19 11.06-2.56-1.01-5.52-1.64-8.7-1.64-9.54 0-17.28 5.23-17.28 11.66 0 5.81 6.34 10.59 14.59 11.47-0.37 0.63-0.66 1.26-0.66 1.92 0 4.24 8.01 7.94 19.79 9.83" stroke="#6798e9" stroke-linecap="round" stroke-miterlimit=".5" stroke-width="6.154" fill="none"/>
      <path id="path10291" d="m470.04 225.35c-8.25 7.27 1.43 13.47 5.12 3.48l2.83-9.26-7.95 5.78z" stroke="#6798e9" stroke-miterlimit="3.2" stroke-width="4" fill="#6798e9"/>
      <path id="path10293" d="m499.09 226.55c-8.25 7.27 1.43 13.47 5.12 3.48l2.83-9.26-7.95 5.78z" stroke="#6798e9" stroke-miterlimit="3.2" stroke-width="4" fill="#6798e9"/>
      <path id="path10295" d="m492.32 211.21c-8.25 7.27 1.44 13.46 5.12 3.48l2.84-9.26-7.96 5.78z" stroke="#6798e9" stroke-miterlimit="3.2" stroke-width="4" fill="#6798e9"/>
      <path id="path10297" stroke-linejoin="round" d="m510.21 208.67c15.43-1.4 26.67-5.66 26.67-10.68 0-0.42-0.28-0.8-0.43-1.21 0.91 0.23 1.83 0.47 2.83 0.47 5.57 0 10.07-3.79 10.07-8.44 0-4.66-4.5-8.41-10.07-8.41-0.68 0-1.28 0.21-1.93 0.32 0.56-1.86 0.95-3.77 0.95-5.79 0-12.32-11.17-22.34-24.95-22.34v0c-9.77 0-18.13 5.09-22.23 12.4-1.64-0.91-3.47-1.47-5.39-1.47-5.84 0-10.69 4.69-12.19 11.06-2.56-1.01-5.52-1.64-8.7-1.64-9.54 0-17.28 5.23-17.28 11.66 0 5.81 6.34 10.59 14.59 11.47-0.37 0.63-0.66 1.26-0.66 1.92 0 4.24 8.01 7.94 19.79 9.83" stroke="#6798e9" stroke-linecap="round" stroke-miterlimit=".5" stroke-width="6.154" fill="none"/>
      <path id="path10299" d="m470.04 225.35c-8.25 7.27 1.43 13.47 5.12 3.48l2.83-9.26-7.95 5.78z" stroke="#6798e9" stroke-miterlimit="3.2" stroke-width="4" fill="#6798e9"/>
      <path id="path10301" d="m499.09 226.55c-8.25 7.27 1.43 13.47 5.12 3.48l2.83-9.26-7.95 5.78z" stroke="#6798e9" stroke-miterlimit="3.2" stroke-width="4" fill="#6798e9"/>
      <path id="path10303" d="m492.32 211.21c-8.25 7.27 1.44 13.46 5.12 3.48l2.84-9.26-7.96 5.78z" stroke="#6798e9" stroke-miterlimit="3.2" stroke-width="4" fill="#6798e9"/>
      <path id="path10305" d="m511.42 157.95l-20.04 12.71 19.79 4.37-18.29 13.64-7.39-2.3 5.24 13.15 20.82-5.74-8.79-2.4 23.87-19.59-21.82-3.56 21.07-13.24-12.02-1.99 13.09-8.41-4.81-0.13-20.31 11.55 9.59 1.94z" stroke="#f5ff12" stroke-linecap="round" stroke-miterlimit=".5" stroke-width=".5" fill="#f5ff12"/>
    </g>
  </g>
  <metadata>
    <rdf:RDF>
      <cc:Work>
        <dc:format>image/svg+xml</dc:format>
        <dc:type rdf:resource="http://purl.org/dc/dcmitype/StillImage"/>
        <cc:license rdf:resource="http://creativecommons.org/licenses/publicdomain/"/>
        <dc:publisher>
          <cc:Agent rdf:about="http://openclipart.org/">
            <dc:title>Openclipart</dc:title>
          </cc:Agent>
        </dc:publisher>
        <dc:title>simple weather symbols</dc:title>
        <dc:date>2008-02-08T23:54:06</dc:date>
        <dc:description>clip art, clipart, clouds, clouds, icon, icon, image, media, png, public domain, rain, rain, snow, snow, sun, sun, svg, symbol, symbol, weather, weather, </dc:description>
        <dc:source>http://openclipart.org/detail/14709/simple-weather-symbols-by-anonymous-14709</dc:source>
        <dc:creator>
          <cc:Agent>
            <dc:title>Anonymous</dc:title>
          </cc:Agent>
        </dc:creator>
        <dc:subject>
          <rdf:Bag>
            <rdf:li>clip art</rdf:li>
            <rdf:li>clipart</rdf:li>
            <rdf:li>clouds</rdf:li>
            <rdf:li>icon</rdf:li>
            <rdf:li>image</rdf:li>
            <rdf:li>media</rdf:li>
            <rdf:li>png</rdf:li>
            <rdf:li>public domain</rdf:li>
            <rdf:li>rain</rdf:li>
            <rdf:li>snow</rdf:li>
            <rdf:li>sun</rdf:li>
            <rdf:li>svg</rdf:li>
            <rdf:li>symbol</rdf:li>
            <rdf:li>weather</rdf:li>
          </rdf:Bag>
        </dc:subject>
      </cc:Work>
      <cc:License rdf:about="http://creativecommons.org/licenses/publicdomain/">
        <cc:permits rdf:resource="http://creativecommons.org/ns#Reproduction"/>
        <cc:permits rdf:resource="http://creativecommons.org/ns#Distribution"/>
        <cc:permits rdf:resource="http://creativecommons.org/ns#DerivativeWorks"/>
      </cc:License>
    </rdf:RDF>
  </metadata>
</svg>
