<?xml version="1.0" encoding="iso-8859-1"?>
<!-- Generator: Adobe Illustrator 19.0.0, SVG Export Plug-In . SVG Version: 6.00 Build 0)  -->
<svg version="1.1" id="Layer_1" xmlns="http://www.w3.org/2000/svg" xmlns:xlink="http://www.w3.org/1999/xlink" x="0px" y="0px"
	 viewBox="0 0 480 480" style="enable-background:new 0 0 480 480;" xml:space="preserve">
<g>
	<g>
		<path d="M245.816,344.336l-4.632,0.16l-13.472-0.408c-10.744-0.336-25.12-2.048-39.168-4.616
			c-16.456-3.624-29.208-7.32-38.128-11.072l-16.496-7.216c-3.992-1.888-8.768-0.184-10.656,3.808s-0.184,8.76,3.808,10.656
			l17.368,7.584c9.584,4.04,23.264,8.024,40.944,11.92c15.08,2.768,30.32,4.56,41.832,4.928l13.984,0.408l5.12-0.16
			c4.416-0.144,7.888-3.832,7.744-8.248C253.928,347.664,250.28,344.144,245.816,344.336z"/>
	</g>
</g>
<g>
	<g>
		<path d="M427.112,248.992c-0.392-4.4-4.192-7.584-8.688-7.248c-4,0.36-7.048,3.616-7.272,7.512l-1.088,4.568
			c-0.664,2.888-1.488,6.488-3.472,10.768c-4.28,10.76-12.2,22.136-21.28,30.52c-9.088,8.64-20.504,16.896-31.696,22.864
			c-2.76,1.664-5.448,2.88-7.816,3.968c-1.44,0.656-2.728,1.248-3.552,1.68l-4.632,2.192c-3.992,1.888-5.688,6.664-3.8,10.656
			c1.368,2.88,4.24,4.576,7.232,4.568c1.152,0,2.32-0.248,3.424-0.776l4.888-2.328c0.88-0.456,1.912-0.92,3.064-1.448
			c2.624-1.192,5.888-2.68,9.072-4.608c12.04-6.416,24.736-15.6,34.744-25.104c10.68-9.824,20.104-23.392,25.032-35.832
			c2.528-5.4,3.648-10.304,4.392-13.552l1.008-4.248C427.176,251.296,427.184,249.864,427.112,248.992z"/>
	</g>
</g>
<g>
	<g>
		<path d="M157.872,138.024c-1.584-4.12-6.216-6.168-10.336-4.6l-8.712,3.352c-1.944,0.752-4.072,1.776-6.44,2.912l-3.552,1.688
			c-3.792,1.648-7.968,3.856-12.848,6.792c-8.896,4.808-18.816,12.016-29.744,21.672c-11.088,10.736-19.512,22.272-24.992,34.144
			c-6.36,13.192-8.952,28.496-7.296,43.056c1.44,13.248,5.768,26.048,12.016,35.728c4.424,7.584,9.864,14.648,15.928,20.72
			c4.336,4.776,7.376,7.16,7.712,7.416c1.448,1.12,3.168,1.664,4.864,1.664c2.384,0,4.736-1.064,6.32-3.088
			c2.704-3.472,2.088-8.496-1.376-11.216c-0.024-0.016-2.304-1.832-5.928-5.8c-5.352-5.376-9.96-11.344-13.88-18.056
			c-5.112-7.936-8.576-18.272-9.752-29.136c-1.328-11.64,0.736-23.832,5.864-34.464c4.704-10.2,11.992-20.128,21.376-29.232
			c9.744-8.6,18.664-15.112,26.792-19.512c4.576-2.736,8.176-4.656,11.472-6.088l3.96-1.88c1.944-0.936,3.696-1.792,5.272-2.4
			l8.68-3.336C157.4,146.776,159.448,142.144,157.872,138.024z"/>
	</g>
</g>
<g>
	<g>
		<path d="M425.856,221.312l-1.032-4.28c-1.16-4.44-4.12-13.536-10.904-24.44c-11.624-19.056-34.472-38.36-59.552-50.344
			c-21.688-10.712-48.496-18.744-73.576-22.056c-11.44-1.432-19.432-2.2-25.152-2.384l-9.304-0.296
			c-4.272-0.112-8.112,3.328-8.256,7.736c-0.144,4.416,3.32,8.112,7.736,8.256l9.296,0.296c5.144,0.168,12.888,0.912,23.64,2.264
			c11.056,1.464,39.864,6.384,68.624,20.576c22.52,10.76,42.792,27.728,52.92,44.344c5.92,9.504,8.296,17.208,9,19.912l1.008,4.184
			c0.48,1.968,0.816,3.312,0.928,3.944l7.912-0.92l-6.536-4.608l13.224,9.008C427.832,229.464,427.336,227.408,425.856,221.312z"/>
	</g>
</g>
<g>
	<g>
		<path d="M210.76,126.624c-0.704-4.36-4.832-7.352-9.176-6.608l-10.696,1.744c-4.36,0.712-7.32,4.824-6.608,9.176
			c0.64,3.928,4.032,6.712,7.888,6.712c0.424,0,0.856-0.032,1.296-0.104l10.688-1.744
			C208.512,135.088,211.472,130.976,210.76,126.624z"/>
	</g>
</g>
<g>
	<g>
		<path d="M307.568,344.256c-0.992-4.312-5.32-7.008-9.592-5.992l-10.152,2.032c-4.352,0.736-7.288,4.872-6.544,9.224
			c0.664,3.904,4.048,6.664,7.88,6.664c0.44,0,0.896-0.032,1.344-0.112l11.072-2.216C305.88,352.856,308.56,348.56,307.568,344.256z
			"/>
	</g>
</g>
<g>
	<g>
		<path d="M239.752,158.824c-44.616,0-80.92,36.304-80.92,80.92c0,44.616,36.304,80.92,80.92,80.92
			c44.616,0,80.912-36.304,80.912-80.92C320.664,195.128,284.368,158.824,239.752,158.824z M239.752,304.672
			c-35.8,0-64.92-29.12-64.92-64.92c0-35.8,29.128-64.92,64.92-64.92s64.912,29.12,64.912,64.92
			C304.664,275.552,275.544,304.672,239.752,304.672z"/>
	</g>
</g>
<g>
	<g>
		<path d="M240,40c-4.416,0-8,3.584-8,8v48c0,4.416,3.584,8,8,8s8-3.584,8-8V48C248,43.584,244.416,40,240,40z"/>
	</g>
</g>
<g>
	<g>
		<path d="M240,0c-4.416,0-8,3.584-8,8v8c0,4.416,3.584,8,8,8s8-3.584,8-8V8C248,3.584,244.416,0,240,0z"/>
	</g>
</g>
<g>
	<g>
		<path d="M430.144,77.864c-3.128-3.128-8.184-3.128-11.312,0l-45.256,45.256c-3.128,3.128-3.128,8.184,0,11.312
			c1.56,1.56,3.608,2.344,5.656,2.344c2.048,0,4.096-0.784,5.656-2.344l45.256-45.256C433.272,86.048,433.272,80.992,430.144,77.864
			z"/>
	</g>
</g>
<g>
	<g>
		<path d="M458.424,49.576c-3.128-3.128-8.184-3.128-11.312,0l-5.656,5.656c-3.128,3.128-3.128,8.184,0,11.312
			c1.56,1.568,3.608,2.344,5.656,2.344c2.048,0,4.096-0.784,5.656-2.344l5.656-5.656C461.552,57.76,461.552,52.704,458.424,49.576z"
			/>
	</g>
</g>
<g>
	<g>
		<path d="M106.424,123.112L61.168,77.856c-3.12-3.12-8.184-3.12-11.312,0c-3.128,3.128-3.128,8.184,0,11.312l45.256,45.256
			c1.56,1.56,3.608,2.344,5.656,2.344s4.096-0.784,5.656-2.344C109.552,131.296,109.552,126.24,106.424,123.112z"/>
	</g>
</g>
<g>
	<g>
		<path d="M38.544,55.232l-5.656-5.656c-3.128-3.128-8.184-3.128-11.312,0s-3.128,8.184,0,11.312l5.656,5.656
			c1.56,1.56,3.608,2.344,5.656,2.344s4.096-0.784,5.656-2.344C41.672,63.416,41.672,58.36,38.544,55.232z"/>
	</g>
</g>
<g>
	<g>
		<path d="M240,376c-4.416,0-8,3.584-8,8v48c0,4.424,3.584,8,8,8s8-3.584,8-8v-48C248,379.584,244.416,376,240,376z"/>
	</g>
</g>
<g>
	<g>
		<path d="M240,456c-4.416,0-8,3.584-8,8v8c0,4.416,3.584,8,8,8s8-3.584,8-8v-8C248,459.584,244.416,456,240,456z"/>
	</g>
</g>
<g>
	<g>
		<path d="M430.144,391.6l-45.256-45.256c-3.128-3.128-8.184-3.128-11.312,0c-3.128,3.128-3.128,8.184,0,11.312l45.256,45.256
			c1.56,1.56,3.608,2.344,5.656,2.344c2.048,0,4.096-0.784,5.656-2.344C433.272,399.784,433.272,394.728,430.144,391.6z"/>
	</g>
</g>
<g>
	<g>
		<path d="M458.424,419.88l-5.656-5.664c-3.128-3.128-8.192-3.12-11.32,0c-3.128,3.128-3.128,8.192,0,11.32l5.656,5.664
			c1.56,1.56,3.616,2.344,5.664,2.344c2.048,0,4.096-0.784,5.656-2.344C461.552,428.072,461.552,423.008,458.424,419.88z"/>
	</g>
</g>
<g>
	<g>
		<path d="M106.424,346.344c-3.128-3.128-8.184-3.128-11.312,0L49.856,391.6c-3.128,3.128-3.128,8.184,0,11.312
			c1.56,1.56,3.608,2.344,5.656,2.344c2.048,0,4.096-0.784,5.656-2.344l45.256-45.256
			C109.552,354.536,109.552,349.472,106.424,346.344z"/>
	</g>
</g>
<g>
	<g>
		<path d="M38.544,414.224c-3.128-3.12-8.192-3.12-11.32,0l-5.656,5.664c-3.12,3.128-3.12,8.192,0,11.32
			c1.56,1.56,3.608,2.336,5.656,2.336s4.096-0.784,5.664-2.344l5.656-5.664C41.664,422.416,41.664,417.344,38.544,414.224z"/>
	</g>
</g>
<g>
	<g>
		<path d="M32,231.968H8c-4.416,0-8,3.584-8,8c0,4.416,3.584,8,8,8h24c4.416,0,8-3.584,8-8C40,235.552,36.416,231.968,32,231.968z"
			/>
	</g>
</g>
<g>
	<g>
		<path d="M472,231.968h-24c-4.416,0-8,3.584-8,8c0,4.416,3.584,8,8,8h24c4.416,0,8-3.584,8-8
			C480,235.552,476.416,231.968,472,231.968z"/>
	</g>
</g>
<g>
	<g>
		<path d="M269.68,258.368c-2.24-2.24-5.84-2.96-8.72-1.76c-0.96,0.4-1.84,0.96-2.64,1.76c-1.44,1.44-2.32,3.52-2.32,5.6
			c0,2.16,0.88,4.24,2.32,5.68c0.8,0.72,1.68,1.36,2.64,1.76c0.96,0.4,2,0.56,3.04,0.56c2.08,0,4.16-0.8,5.68-2.32
			c0.32-0.32,0.72-0.8,0.96-1.2c0.32-0.48,0.56-0.88,0.72-1.36c0.24-0.48,0.4-1.04,0.48-1.52s0.16-1.04,0.16-1.6
			C272,261.888,271.12,259.808,269.68,258.368z"/>
	</g>
</g>
<g>
	<g>
		<path d="M252.704,190.92c-15.464,0-28.04,12.576-28.04,28.04S237.248,247,252.704,247c15.464,0,28.04-12.576,28.04-28.04
			C280.744,203.496,268.168,190.92,252.704,190.92z M252.704,231c-6.64,0-12.04-5.4-12.04-12.04c0-6.64,5.408-12.04,12.04-12.04
			c6.64,0,12.04,5.4,12.04,12.04C264.744,225.6,259.344,231,252.704,231z"/>
	</g>
</g>
<g>
</g>
<g>
</g>
<g>
</g>
<g>
</g>
<g>
</g>
<g>
</g>
<g>
</g>
<g>
</g>
<g>
</g>
<g>
</g>
<g>
</g>
<g>
</g>
<g>
</g>
<g>
</g>
<g>
</g>
</svg>
