<?xml version="1.0"?>
<svg xmlns:rdf="http://www.w3.org/1999/02/22-rdf-syntax-ns#" xmlns="http://www.w3.org/2000/svg" xmlns:cc="http://creativecommons.org/ns#" xmlns:dc="http://purl.org/dc/elements/1.1/" xmlns:svg="http://www.w3.org/2000/svg" id="svg2539" viewBox="0 0 107.95 88.341" version="1.0">
  <g id="layer1" transform="translate(-321.02 -488.19)">
    <g id="g13537" stroke="#6798e9" transform="translate(144.86 343.99)">
      <path id="path8702" stroke-linejoin="round" d="m245.04 147.27c-9.77 0-18.13 5.09-22.24 12.4-1.63-0.91-3.46-1.47-5.39-1.47-5.83 0-10.68 4.69-12.18 11.06-2.56-1.01-5.52-1.64-8.7-1.64-9.54 0-17.29 5.23-17.29 11.67 0 5.81 6.35 10.58 14.59 11.47-0.37 0.63-0.66 1.25-0.66 1.91 0 6.16 16.89 11.17 37.7 11.17 20.8 0 37.69-5.01 37.69-11.17 0-0.41-0.27-0.8-0.42-1.2 0.91 0.22 1.83 0.46 2.83 0.46 5.56 0 10.07-3.78 10.07-8.44 0-4.65-4.51-8.41-10.07-8.41-0.69 0-1.29 0.22-1.93 0.33 0.56-1.86 0.95-3.77 0.95-5.79 0-12.33-11.17-22.35-24.95-22.35z" stroke-linecap="round" stroke-miterlimit=".5" stroke-width="6.154" fill="#fff"/>
      <path id="path8704" d="m208.33 221.08c-8.25 7.27 1.43 13.47 5.12 3.48l2.83-9.26-7.95 5.78z" stroke-width="4" stroke-miterlimit="3.2" fill="#6798e9"/>
      <path id="path8706" d="m229.2 221.85c-8.25 7.27 1.44 13.47 5.12 3.49l2.83-9.26-7.95 5.77z" stroke-width="4" stroke-miterlimit="3.2" fill="#6798e9"/>
    </g>
  </g>
  <metadata>
    <rdf:RDF>
      <cc:Work>
        <dc:format>image/svg+xml</dc:format>
        <dc:type rdf:resource="http://purl.org/dc/dcmitype/StillImage"/>
        <cc:license rdf:resource="http://creativecommons.org/licenses/publicdomain/"/>
        <dc:publisher>
          <cc:Agent rdf:about="http://openclipart.org/">
            <dc:title>Openclipart</dc:title>
          </cc:Agent>
        </dc:publisher>
        <dc:title>simple weather symbols</dc:title>
        <dc:date>2008-02-08T23:54:06</dc:date>
        <dc:description>clip art, clipart, clouds, clouds, icon, icon, image, media, png, public domain, rain, rain, snow, snow, sun, sun, svg, symbol, symbol, weather, weather, </dc:description>
        <dc:source>http://openclipart.org/detail/14708/simple-weather-symbols-by-anonymous-14708</dc:source>
        <dc:creator>
          <cc:Agent>
            <dc:title>Anonymous</dc:title>
          </cc:Agent>
        </dc:creator>
        <dc:subject>
          <rdf:Bag>
            <rdf:li>clip art</rdf:li>
            <rdf:li>clipart</rdf:li>
            <rdf:li>clouds</rdf:li>
            <rdf:li>icon</rdf:li>
            <rdf:li>image</rdf:li>
            <rdf:li>media</rdf:li>
            <rdf:li>png</rdf:li>
            <rdf:li>public domain</rdf:li>
            <rdf:li>rain</rdf:li>
            <rdf:li>snow</rdf:li>
            <rdf:li>sun</rdf:li>
            <rdf:li>svg</rdf:li>
            <rdf:li>symbol</rdf:li>
            <rdf:li>weather</rdf:li>
          </rdf:Bag>
        </dc:subject>
      </cc:Work>
      <cc:License rdf:about="http://creativecommons.org/licenses/publicdomain/">
        <cc:permits rdf:resource="http://creativecommons.org/ns#Reproduction"/>
        <cc:permits rdf:resource="http://creativecommons.org/ns#Distribution"/>
        <cc:permits rdf:resource="http://creativecommons.org/ns#DerivativeWorks"/>
      </cc:License>
    </rdf:RDF>
  </metadata>
</svg>
